<svg width="100" height="50" viewBox="0 0 100 50" xmlns="http://www.w3.org/2000/svg">
  <!-- Cracked pot -->
  <g>
    <!-- Pot base - with crack -->
    <path d="M30,30 L45,30 L45,45 L30,45 Z" fill="#1f5d1f" />
    <path d="M55,30 L70,30 L70,45 L55,45 Z" fill="#1f5d1f" />
    
    <!-- Crack in middle -->
    <path d="M45,30 L47,35 L50,30 L53,35 L55,30 L55,45 L45,45 Z" fill="#051405" />
    
    <!-- Pot rim - with crack -->
    <path d="M25,20 L45,20 L45,30 L25,30 Z" fill="#1f5d1f" />
    <path d="M55,20 L75,20 L75,30 L55,30 Z" fill="#1f5d1f" />
    
    <!-- Crack in rim -->
    <path d="M45,20 L47,25 L50,20 L53,25 L55,20 L55,30 L45,30 Z" fill="#051405" />
  </g>
  
  <!-- Bitcoin logo -->
  <g fill="#856617">
    <rect x="47" y="27" width="2" height="15" />
    <rect x="42" y="32" width="12" height="2" />
    <rect x="42" y="27" width="12" height="2" />
    <rect x="42" y="37" width="12" height="2" />
    <rect x="52" y="27" width="2" height="12" />
  </g>
</svg>